<?xml version="1.0" standalone="no"?>
<!DOCTYPE svg PUBLIC "-//W3C//DTD SVG 20010904//EN"
 "http://www.w3.org/TR/2001/REC-SVG-20010904/DTD/svg10.dtd">
<svg version="1.0" xmlns="http://www.w3.org/2000/svg"
 width="166.000000pt" height="137.000000pt" viewBox="0 0 166.000000 137.000000"
 preserveAspectRatio="xMidYMid meet">
<metadata>
Created by potrace 1.16, written by Peter Selinger 2001-2019
</metadata>
<g transform="translate(0.000000,137.000000) scale(0.100000,-0.100000)"
fill="#000000" stroke="none">
<path d="M0 685 l0 -685 830 0 830 0 0 685 0 685 -830 0 -830 0 0 -685z m1053
414 c30 -16 37 -28 37 -64 -1 -81 -92 -99 -130 -26 -17 34 -24 38 -80 49 -33
6 -67 9 -75 6 -7 -3 -17 -24 -20 -47 -4 -23 -11 -44 -15 -47 -4 -3 -11 -19
-14 -36 -7 -31 -7 -32 41 -38 71 -10 154 -35 170 -52 18 -18 34 -18 59 1 39
30 92 7 120 -52 16 -33 16 -34 -15 -73 -20 -25 -31 -50 -31 -70 0 -17 -6 -45
-14 -63 -19 -47 -92 -115 -137 -129 -21 -6 -39 -14 -39 -19 0 -11 -119 -29
-191 -29 -121 1 -224 38 -297 108 -47 45 -62 77 -62 130 0 23 -8 44 -22 59
-34 36 -30 100 8 130 30 24 78 31 89 13 8 -13 48 -13 61 0 6 6 62 23 125 39
l114 29 15 55 c8 31 18 59 23 63 4 4 7 15 7 25 0 29 18 32 95 19 70 -12 75
-12 101 9 30 24 46 26 77 10z"/>
<path d="M556 755 c-52 -48 -22 -125 48 -125 49 0 66 19 66 73 0 36 -5 48 -25
61 -34 22 -58 20 -89 -9z"/>
<path d="M818 759 c-35 -26 -39 -85 -8 -112 27 -23 89 -22 106 1 22 28 17 88
-8 112 -27 25 -55 25 -90 -1z"/>
<path d="M574 565 c-4 -8 -4 -26 0 -38 14 -58 186 -84 271 -42 35 18 40 24 40
55 0 29 -4 36 -23 38 -13 2 -33 -5 -44 -15 -28 -25 -147 -26 -175 0 -24 21
-62 22 -69 2z"/>
</g>
</svg>
